<?xml version="1.0" encoding="UTF-8"?>
<svg width="14px" height="14px" viewBox="0 0 14 14" version="1.1" xmlns="http://www.w3.org/2000/svg" xmlns:xlink="http://www.w3.org/1999/xlink">
    <title>编组 8</title>
    <g id="页面-1" stroke="none" stroke-width="1" fill="none" fill-rule="evenodd">
        <g id="原型4" transform="translate(-351.000000, -192.000000)">
            <g id="编组-4" transform="translate(90.000000, 187.000000)">
                <g id="编组-8" transform="translate(261.000000, 5.000000)">
                    <circle id="清空" fill="#3258DE" opacity="0.300000012" cx="7" cy="7" r="7"></circle>
                    <path d="M7.35316958,9.468 L7.35316958,9.192 C7.35316958,8.868 7.42516958,8.58 7.58116958,8.316 C7.70116958,8.1 7.88116958,7.884 8.14516958,7.656 C8.67316958,7.188 8.99716958,6.876 9.11716958,6.732 C9.41716958,6.336 9.57316958,5.868 9.57316958,5.328 C9.57316958,4.608 9.34516958,4.044 8.90116958,3.636 C8.43316958,3.204 7.82116958,3 7.05316958,3 C6.18916958,3 5.51716958,3.264 5.03716958,3.792 C4.55716958,4.296 4.32916958,4.968 4.32916958,5.808 L5.27716958,5.808 C5.27716958,5.22 5.40916958,4.764 5.67316958,4.428 C5.96116958,4.032 6.40516958,3.84 7.00516958,3.84 C7.50916958,3.84 7.90516958,3.972 8.18116958,4.26 C8.44516958,4.524 8.58916958,4.896 8.58916958,5.376 C8.58916958,5.712 8.46916958,6.024 8.22916958,6.324 C8.15716958,6.42 8.01316958,6.564 7.82116958,6.756 C7.17316958,7.332 6.77716958,7.788 6.60916958,8.148 C6.46516958,8.448 6.39316958,8.796 6.39316958,9.192 L6.39316958,9.468 L7.35316958,9.468 Z M6.97002307,11.736 C7.17402307,11.736 7.34202307,11.664 7.48602307,11.532 C7.63002307,11.4 7.70202307,11.232 7.70202307,11.016 C7.70202307,10.812 7.63002307,10.644 7.49802307,10.512 C7.35402307,10.368 7.17402307,10.308 6.97002307,10.308 C6.76602307,10.308 6.59802307,10.368 6.45402307,10.512 C6.31002307,10.644 6.25002307,10.812 6.25002307,11.016 C6.25002307,11.22 6.31002307,11.388 6.45402307,11.532 C6.59802307,11.664 6.76602307,11.736 6.97002307,11.736 Z" id="？" fill="#FFFFFF" fill-rule="nonzero"></path>
                </g>
            </g>
        </g>
    </g>
</svg>